<svg width="109" height="57" viewBox="0 0 109 57" fill="none" xmlns="http://www.w3.org/2000/svg">
<path d="M41 50.7167C41 49.3788 42.4708 48.3381 44.152 48.4863L94.7665 52.9495C101.196 53.5165 106.635 49.2282 105.94 44.1415C105.216 38.8572 98.2964 35.5913 92.0716 37.597L44.9084 52.7949C43.0421 53.3963 41 52.3105 41 50.7167Z" fill="url(#paint0_linear_29_34)"/>
<path d="M12.5084 53C11.0728 52.5502 9.52239 52.0754 7.85713 51.5757C6.24929 51.0259 4.87114 50.5012 3.72268 50.0014C2.57423 49.5017 2 49.1518 2 48.9519C2 48.752 2.20098 47.9024 2.60294 46.4031C3.06232 44.8538 3.63655 42.9048 4.32562 40.5559C5.07212 38.157 5.84733 35.5582 6.65125 32.7595C7.51259 29.9609 8.37393 27.1872 9.23527 24.4385C10.0966 21.6398 10.9005 19.091 11.647 16.7921C12.3935 14.4432 12.9965 12.5691 13.4558 11.1697H8.97687L5.10083 6.1471L5.61764 4.94766H23.3613L28.3571 11.2447C29.0461 13.6935 29.7639 16.4672 30.5104 19.5658C31.2569 22.6143 32.0034 25.7379 32.7499 28.9364C33.4964 32.0849 34.1855 35.0085 34.8171 37.7072C35.4488 40.4059 35.9656 42.6549 36.3675 44.454C36.7695 46.2532 36.9992 47.2777 37.0566 47.5276C37.1715 48.1773 37.4873 48.677 38.0041 49.0269C38.5209 49.3767 39.4397 49.8515 40.7604 50.4512L39.7268 52.8501C38.0041 52.3503 36.2814 51.7756 34.5587 51.1259C32.8935 50.4762 31.5153 49.8515 30.4243 49.2518C29.3333 48.6521 28.759 48.2273 28.7016 47.9774C28.5293 46.3781 28.3284 44.7539 28.0987 43.1047C27.869 41.4055 27.6106 39.7313 27.3235 38.082C26.8067 38.0321 26.2898 38.0071 25.773 38.0071C23.7058 38.0071 21.5525 38.207 19.313 38.6068C17.0735 39.0066 15.035 39.7313 13.1974 40.7808C12.7955 42.1801 12.3648 43.6044 11.9054 45.0538C11.5035 46.5031 11.1015 47.9524 10.6996 49.4017L13.542 50.6011L12.5084 53ZM19.8298 31.9349C22.1267 31.9349 24.3662 32.4847 26.5482 33.5842C25.8592 29.586 25.084 25.7129 24.2226 21.9646C23.4187 18.1664 22.7009 14.793 22.0693 11.8444C21.2654 14.3932 20.3179 17.3918 19.2268 20.8402C18.1932 24.2885 17.0448 28.1117 15.7815 32.3098C17.1596 32.0599 18.5091 31.9349 19.8298 31.9349Z" fill="#F9F3F3"/>
<path d="M55.3278 52.8501C51.6528 51.6506 48.8104 50.5761 46.8006 49.6266C44.8482 48.6271 43.872 47.7275 43.872 46.9279C43.872 46.2282 43.9581 45.1537 44.1304 43.7044C44.3601 42.2051 44.4749 40.7558 44.4749 39.3564V29.761C44.4749 28.7614 44.5036 27.512 44.5611 26.0127C44.6759 24.5134 44.8769 23.239 45.164 22.1895H41.977L37.4981 17.017L38.101 15.8175H46.1976C46.4273 15.8175 46.9154 16.1674 47.6619 16.867C48.4658 17.5167 49.2697 18.2664 50.0737 19.116C51.1647 17.8166 52.5141 16.867 54.122 16.2673C55.7872 15.6176 57.3951 15.2928 58.9455 15.2928H60.7543C61.9027 15.2928 63.166 15.6926 64.5442 16.4922C65.9798 17.2918 67.3579 18.2664 68.6786 19.4158C70.0568 20.5653 71.1765 21.7148 72.0379 22.8642C72.8992 23.9637 73.3299 24.8633 73.3299 25.5629C73.3299 26.8124 73.2725 28.3616 73.1576 30.2108C73.0428 32.0599 72.9853 33.5592 72.9853 34.7086V40.181C72.9853 41.9802 72.8992 43.5794 72.7269 44.9788C72.5547 46.3281 72.4685 47.3527 72.4685 48.0523C72.4685 48.5521 72.6695 48.9519 73.0715 49.2518C73.5309 49.5017 74.6219 50.0264 76.3446 50.826L75.311 52.8501C71.6359 51.6506 68.7935 50.5761 66.7837 49.6266C64.8313 48.6271 63.8551 47.7275 63.8551 46.9279C63.8551 46.2282 63.9413 45.1537 64.1135 43.7044C64.3432 42.2051 64.4581 40.7558 64.4581 39.3564V35.4583C64.4581 33.859 64.5155 32.0349 64.6303 29.9859C64.7452 27.9368 64.8026 26.1377 64.8026 24.5884C64.8026 23.5889 64.659 22.9142 64.3719 22.5644C64.0848 22.2145 63.4532 22.0396 62.477 22.0396C59.2613 22.0396 56.8783 22.7643 55.3278 24.2136C53.7774 25.6129 53.0022 27.562 53.0022 30.0608V40.181C53.0022 41.9802 52.9161 43.5794 52.7438 44.9788C52.5715 46.3281 52.4854 47.3527 52.4854 48.0523C52.4854 48.5521 52.6864 48.9519 53.0883 49.2518C53.5477 49.5017 54.6388 50.0264 56.3615 50.826L55.3278 52.8501Z" fill="#F9F3F3"/>
<path d="M87.3004 10.7949L81.6156 5.47242V4.72277C83.166 2.92362 85.2619 1.34936 87.9034 0L93.5882 5.17256L93.5021 6.07214C92.3537 6.77181 91.2626 7.54644 90.229 8.39604C89.2528 9.24564 88.2766 10.0453 87.3004 10.7949ZM94.9664 53C91.2913 51.8006 88.4489 50.7261 86.4391 49.7765C84.4867 48.777 83.5105 47.8774 83.5105 47.0778C83.5105 46.3781 83.5967 45.3036 83.7689 43.8543C83.9986 42.355 84.1135 40.9057 84.1135 39.5064V28.7864C84.1135 27.487 84.1709 26.2876 84.2858 25.1881C84.458 24.0387 84.7164 23.0391 85.061 22.1895H82.2185L77.6534 17.0919L78.2564 15.8175H89.2815L94.2773 21.6648C93.5882 22.4644 93.1289 23.4639 92.8992 24.6634C92.7269 25.8628 92.6408 27.3871 92.6408 29.2362V40.331C92.6408 42.1301 92.5546 43.7294 92.3824 45.1287C92.2101 46.4781 92.124 47.5026 92.124 48.2023C92.124 48.702 92.3249 49.1018 92.7269 49.4017C93.1863 49.6516 94.2773 50.1763 96 50.976L94.9664 53Z" fill="#F9F3F3"/>
<defs>
<linearGradient id="paint0_linear_29_34" x1="285.327" y1="47.6582" x2="268.034" y2="115.779" gradientUnits="userSpaceOnUse">
<stop stop-color="#DF8908"/>
<stop offset="1" stop-color="#B415FF"/>
</linearGradient>
</defs>
</svg>
