<svg width="102" height="48" viewBox="0 0 102 48" fill="none" xmlns="http://www.w3.org/2000/svg">
<rect width="102" height="48" fill="#161513"/>
<path d="M46 46.2875C46 45.2841 47.0183 44.5036 48.1822 44.6148L83.223 47.9621C87.6739 48.3874 91.4398 45.1711 90.9584 41.3561C90.4569 37.3929 85.6667 34.9435 81.3573 36.4477L48.7058 47.8462C47.4138 48.2972 46 47.4829 46 46.2875Z" fill="url(#paint0_linear_30_12)"/>
<path d="M18.4961 48C17.3355 47.6351 16.0819 47.2499 14.7355 46.8444C13.4356 46.3984 12.3213 45.9727 11.3928 45.5672C10.4643 45.1617 10 44.8779 10 44.7157C10 44.5535 10.1625 43.8642 10.4875 42.6478C10.8589 41.3909 11.3232 39.8095 11.8803 37.9038C12.4838 35.9576 13.1106 33.8491 13.7606 31.5785C14.457 29.3079 15.1534 27.0575 15.8498 24.8274C16.5462 22.5568 17.1962 20.4889 17.7997 18.6238C18.4033 16.7181 18.8908 15.1976 19.2622 14.0622H15.6409L12.5071 9.98727L12.9249 9.01414H27.2708L31.31 14.1231C31.8671 16.1099 32.4474 18.3602 33.051 20.8741C33.6545 23.3475 34.2581 25.8817 34.8616 28.4767C35.4652 31.0311 36.0223 33.4031 36.533 35.5926C37.0437 37.7822 37.4615 39.6068 37.7865 41.0665C38.1115 42.5262 38.2972 43.3574 38.3437 43.5601C38.4365 44.0872 38.6919 44.4927 39.1097 44.7765C39.5275 45.0604 40.2704 45.4455 41.3382 45.9321L40.5025 47.8784C39.1097 47.4729 37.7169 47.0066 36.3241 46.4795C34.9777 45.9524 33.8635 45.4455 32.9813 44.959C32.0992 44.4724 31.635 44.1278 31.5885 43.925C31.4493 42.6275 31.2868 41.3098 31.101 39.9717C30.9153 38.5931 30.7064 37.2348 30.4743 35.8967C30.0564 35.8562 29.6386 35.8359 29.2208 35.8359C27.5494 35.8359 25.8084 35.9981 23.9977 36.3225C22.1871 36.6469 20.5389 37.2348 19.0533 38.0863C18.7283 39.2216 18.3801 40.3772 18.0086 41.553C17.6837 42.7289 17.3587 43.9048 17.0337 45.0806L19.3318 46.0538L18.4961 48ZM24.4156 30.9095C26.2726 30.9095 28.0833 31.3555 29.8475 32.2475C29.2904 29.0038 28.6636 25.8614 27.9672 22.8204C27.3173 19.7388 26.7369 17.0019 26.2262 14.6096C25.5762 16.6775 24.8102 19.1103 23.9281 21.9081C23.0924 24.7058 22.1639 27.8076 21.1425 31.2136C22.2567 31.0108 23.3477 30.9095 24.4156 30.9095Z" fill="#F9F3F3"/>
<path d="M53.1161 47.8784C50.1448 46.9052 47.8467 46.0335 46.2217 45.2631C44.6432 44.4521 43.8539 43.7223 43.8539 43.0736C43.8539 42.5059 43.9236 41.6341 44.0629 40.4583C44.2486 39.2419 44.3414 38.066 44.3414 36.9307V29.1457C44.3414 28.3347 44.3646 27.3211 44.4111 26.1047C44.5039 24.8883 44.6664 23.8543 44.8986 23.0028H42.3219L38.7006 18.8062L39.188 17.8331H45.7342C45.9199 17.8331 46.3146 18.1169 46.9181 18.6846C47.5681 19.2117 48.2181 19.8199 48.8681 20.5092C49.7502 19.455 50.8412 18.6846 52.1412 18.198C53.4875 17.6709 54.7875 17.4074 56.041 17.4074H57.5035C58.432 17.4074 59.4534 17.7317 60.5677 18.3805C61.7283 19.0292 62.8426 19.8199 63.9104 20.7525C65.0246 21.6851 65.93 22.6176 66.6264 23.5502C67.3228 24.4422 67.671 25.1721 67.671 25.7397C67.671 26.7534 67.6245 28.0104 67.5317 29.5106C67.4388 31.0108 67.3924 32.2273 67.3924 33.1598V37.5997C67.3924 39.0594 67.3228 40.3569 67.1835 41.4922C67.0442 42.587 66.9746 43.4182 66.9746 43.9859C66.9746 44.3913 67.1371 44.7157 67.4621 44.959C67.8335 45.1617 68.7156 45.5875 70.1084 46.2362L69.2727 47.8784C66.3014 46.9052 64.0032 46.0335 62.3783 45.2631C60.7998 44.4521 60.0105 43.7223 60.0105 43.0736C60.0105 42.5059 60.0802 41.6341 60.2194 40.4583C60.4052 39.2419 60.498 38.066 60.498 36.9307V33.768C60.498 32.4705 60.5444 30.9906 60.6373 29.3281C60.7301 27.6657 60.7766 26.206 60.7766 24.9491C60.7766 24.1381 60.6605 23.5908 60.4284 23.3069C60.1962 23.0231 59.6855 22.8812 58.8963 22.8812C56.2964 22.8812 54.3697 23.4691 53.1161 24.645C51.8626 25.7803 51.2358 27.3616 51.2358 29.389V37.5997C51.2358 39.0594 51.1662 40.3569 51.0269 41.4922C50.8876 42.587 50.818 43.4182 50.818 43.9859C50.818 44.3913 50.9805 44.7157 51.3055 44.959C51.6769 45.1617 52.559 45.5875 53.9518 46.2362L53.1161 47.8784Z" fill="#F9F3F3"/>
<path d="M78.9663 13.7581L74.3701 9.43989V8.83168C75.6236 7.372 77.3182 6.09477 79.4538 5L84.0501 9.19661L83.9804 9.92645C83.0519 10.4941 82.1698 11.1226 81.3341 11.8119C80.5448 12.5012 79.7556 13.1499 78.9663 13.7581ZM85.1643 48C82.193 47.0269 79.8949 46.1551 78.2699 45.3847C76.6914 44.5738 75.9021 43.8439 75.9021 43.1952C75.9021 42.6275 75.9718 41.7558 76.1111 40.5799C76.2968 39.3635 76.3896 38.1877 76.3896 37.0523V28.355C76.3896 27.3008 76.4361 26.3277 76.5289 25.4356C76.6682 24.5031 76.8771 23.6921 77.1557 23.0028H74.8575L71.1666 18.867L71.6541 17.8331H80.5681L84.6072 22.5771C84.0501 23.2258 83.6787 24.0368 83.493 25.0099C83.3537 25.983 83.284 27.2197 83.284 28.7199V37.7214C83.284 39.181 83.2144 40.4786 83.0751 41.6139C82.9358 42.7086 82.8662 43.5398 82.8662 44.1075C82.8662 44.513 83.0287 44.8373 83.3537 45.0806C83.7251 45.2834 84.6072 45.7091 86 46.3579L85.1643 48Z" fill="#F9F3F3"/>
<defs>
<linearGradient id="paint0_linear_30_12" x1="215.15" y1="43.9936" x2="201.245" y2="94.5528" gradientUnits="userSpaceOnUse">
<stop stop-color="#DF8908"/>
<stop offset="1" stop-color="#B415FF"/>
</linearGradient>
</defs>
</svg>
